# xmcd CD database file
#
# Track frame offsets:
#	150
#	39404
#	71489
#	104320
#	134641
#	165066
#	200102
#
# Disc length: 3267 seconds
#
# Revision: 0
# Processed by: cddbd v1.5.2PL0 Copyright (c) Steve Scherf et al.
# Submitted via: CDex 1.70beta2
#
DISCID=5c0cc107
DTITLE=Ścierański Napiórkowski Jakubek Dąbrówka - Live in Opole
DYEAR=2002
DGENRE=Jazz
TTITLE0=Massage from Spain
TTITLE1=Nap
TTITLE2=O czym to ja mówiłem?
TTITLE3=Księżyc, ty i ja
TTITLE4=Blues 7/8
TTITLE5=Ballada garażowa
TTITLE6=Coming home baby
EXTD=YEAR: 2002
EXTT0=
EXTT1=
EXTT2=
EXTT3=
EXTT4=
EXTT5=
EXTT6=
PLAYORDER=
